<svg width="1200" height="340" viewBox="0 0 1200 340" xmlns="http://www.w3.org/2000/svg">
  <defs>
    <linearGradient id="dg1" x1="0" y1="0" x2="1" y2="1">
      <stop offset="0%" stop-color="#0b1220"/>
      <stop offset="100%" stop-color="#0f172a"/>
    </linearGradient>
    <linearGradient id="dg2" x1="0" y1="0" x2="1" y2="0">
      <stop offset="0%" stop-color="#818cf8"/>
      <stop offset="100%" stop-color="#22d3ee"/>
    </linearGradient>
    <filter id="dsoftShadow" x="-20%" y="-20%" width="140%" height="140%">
      <feDropShadow dx="0" dy="14" stdDeviation="16" flood-color="#000000" flood-opacity="0.5"/>
    </filter>
  </defs>

  <rect x="24" y="24" rx="24" ry="24" width="1152" height="292" fill="url(#dg1)" filter="url(#dsoftShadow)"/>
  <path d="M24,230 C240,200 320,320 560,300 C800,280 960,160 1176,190 L1176,316 L24,316 Z"
        fill="url(#dg2)" opacity="0.20"/>
  <circle cx="140" cy="170" r="66" fill="none" stroke="url(#dg2)" stroke-width="6"/>
  <clipPath id="dclip"><circle cx="140" cy="170" r="58"/></clipPath>
  <image href="https://avatars.githubusercontent.com/u/171186804?v=4" x="82" y="112" width="116" height="116" clip-path="url(#dclip)"/>
  <text x="220" y="165" font-family="Inter, Segoe UI, Roboto, Arial" font-size="36" font-weight="800" fill="#e2e8f0">Ran Almagor</text>
  <text x="220" y="205" font-family="Inter, Segoe UI, Roboto, Arial" font-size="18" fill="#94a3b8">Computer Science B.Sc · Modern C++ · Systems & Performance</text>
  <rect x="220" y="228" rx="8" ry="8" width="320" height="30" fill="#111827" stroke="#1f2937"/>
  <text x="235" y="248" font-family="Inter, Segoe UI, Roboto, Arial" font-size="14" fill="#c7d2fe">C++17/20 · Polymorphism · RAII · Templates · Exceptions</text>
</svg>
