<svg width="1200" height="340" viewBox="0 0 1200 340" xmlns="http://www.w3.org/2000/svg">
  <defs>
    <linearGradient id="g1" x1="0" y1="0" x2="1" y2="1">
      <stop offset="0%" stop-color="#f8fafc"/>
      <stop offset="100%" stop-color="#e2e8f0"/>
    </linearGradient>
    <linearGradient id="g2" x1="0" y1="0" x2="1" y2="0">
      <stop offset="0%" stop-color="#6366f1"/>
      <stop offset="100%" stop-color="#22d3ee"/>
    </linearGradient>
    <filter id="softShadow" x="-20%" y="-20%" width="140%" height="140%">
      <feDropShadow dx="0" dy="14" stdDeviation="16" flood-color="#94a3b8" flood-opacity="0.35"/>
    </filter>
  </defs>

  <!-- Card -->
  <rect x="24" y="24" rx="24" ry="24" width="1152" height="292" fill="url(#g1)" filter="url(#softShadow)"/>
  <!-- Accent -->
  <path d="M24,230 C240,200 320,320 560,300 C800,280 960,160 1176,190 L1176,316 L24,316 Z"
        fill="url(#g2)" opacity="0.10"/>

  <!-- Monogram circle (no external image, safe on GitHub) -->
  <defs>
    <linearGradient id="ring" x1="0" y1="0" x2="1" y2="1">
      <stop offset="0%" stop-color="#6366f1"/>
      <stop offset="100%" stop-color="#22d3ee"/>
    </linearGradient>
  </defs>
  <circle cx="140" cy="170" r="66" fill="none" stroke="url(#ring)" stroke-width="6"/>
  <circle cx="140" cy="170" r="58" fill="#ffffff"/>
  <text x="140" y="178" text-anchor="middle" font-family="Inter, Segoe UI, Roboto, Arial" font-size="40" font-weight="800" fill="#334155">
    RA
  </text>

  <!-- Text -->
  <text x="220" y="165" font-family="Inter, Segoe UI, Roboto, Arial" font-size="36" font-weight="800" fill="#0f172a">
    Ran Almagor
  </text>
  <text x="220" y="205" font-family="Inter, Segoe UI, Roboto, Arial" font-size="18" fill="#334155">
    Computer Science B.Sc · Modern C++ · Systems & Performance
  </text>

  <!-- Badge -->
  <rect x="220" y="228" rx="8" ry="8" width="300" height="30" fill="#eef2ff"/>
  <text x="235" y="248" font-family="Inter, Segoe UI, Roboto, Arial" font-size="14" fill="#3730a3">
    C++17/20 · RAII · Templates · Polymorphism · Exceptions
  </text>
</svg>
